<svg xmlns="http://www.w3.org/2000/svg" xmlns:xlink="http://www.w3.org/1999/xlink" width="1000px" height="120">

<!-- 
     Copyright (c)  2005 Lauri Kaila.
     Permission is granted to copy, distribute and/or modify this document
     under the terms of the GNU Free Documentation License, Version 1.2
     or any later version published by the Free Software Foundation;
     with no Invariant Sections, no Front-Cover Texts, and no Back-Cover Texts.
     A copy of the license is included in the section entitled "GNU
     Free Documentation License".
     
     
     
     Intented to create a keyboard where key widths are
     accurately in position. 
     
     See http://www.mathpages.com/home/kmath043.htm
     for the math.
     
     This keyboard has following properties (x=octave width).
     1. All white keys have equal width in front (W=x/7).
     2. All black keys have equal width (B=x/12).
     3. The narrow part of white keys C, D and E is W - B*2/3
     4. The narrow part of white keys F, G, A, and B is W - B*3/4
     
-->

<!-- White keys  -->
<rect style="fill:white;stroke:black" x=  "0" y="0" width="23" height="120" ry="3" />
<rect style="fill:white;stroke:black" x= "23" y="0" width="23" height="120" ry="3" />
<rect style="fill:white;stroke:black" x= "46" y="0" width="23" height="120" ry="3" />
<rect style="fill:white;stroke:black" x= "69" y="0" width="23" height="120" ry="3" />
<rect style="fill:white;stroke:black" x= "92" y="0" width="23" height="120" ry="3" />
<rect style="fill:white;stroke:black" x="115" y="0" width="23" height="120" ry="3" />
<rect style="fill:white;stroke:black" x="138" y="0" width="23" height="120" ry="3" />
<rect style="fill:white;stroke:black" x="161" y="0" width="23" height="120" ry="3" />
<rect style="fill:white;stroke:black" x="184" y="0" width="23" height="120" ry="3" />
<rect style="fill:white;stroke:black" x="207" y="0" width="23" height="120" ry="3" />
<rect style="fill:white;stroke:black" x="230" y="0" width="23" height="120" ry="3" />
<rect style="fill:white;stroke:black" x="253" y="0" width="23" height="120" ry="3" />
<rect style="fill:white;stroke:black" x="276" y="0" width="23" height="120" ry="3" />
<rect style="fill:white;stroke:black" x="299" y="0" width="23" height="120" ry="3" />
<rect style="fill:white;stroke:black" x="322" y="0" width="23" height="120" ry="3" />
<rect style="fill:white;stroke:black" x="345" y="0" width="23" height="120" ry="3" />
<rect style="fill:white;stroke:black" x="368" y="0" width="23" height="120" ry="3" />
<rect style="fill:white;stroke:black" x="391" y="0" width="23" height="120" ry="3" />
<rect style="fill:white;stroke:black" x="414" y="0" width="23" height="120" ry="3" />
<rect style="fill:white;stroke:black" x="437" y="0" width="23" height="120" ry="3" />
<rect style="fill:white;stroke:black" x="460" y="0" width="23" height="120" ry="3" />
<rect style="fill:white;stroke:black" x="483" y="0" width="23" height="120" ry="3" />
<rect style="fill:white;stroke:black" x="506" y="0" width="23" height="120" ry="3" />
<rect style="fill:white;stroke:black" x="529" y="0" width="23" height="120" ry="3" />
<rect style="fill:white;stroke:black" x="552" y="0" width="23" height="120" ry="3" />
<rect style="fill:white;stroke:black" x="575" y="0" width="23" height="120" ry="3" />
<rect style="fill:white;stroke:black" x="598" y="0" width="23" height="120" ry="3" />
<rect style="fill:white;stroke:black" x="621" y="0" width="23" height="120" ry="3" />
<rect style="fill:white;stroke:black" x="644" y="0" width="23" height="120" ry="3" />
<rect style="fill:white;stroke:black" x="667" y="0" width="23" height="120" ry="3" />
<rect style="fill:white;stroke:black" x="690" y="0" width="23" height="120" ry="3" />
<rect style="fill:white;stroke:black" x="713" y="0" width="23" height="120" ry="3" />
<rect style="fill:white;stroke:black" x="736" y="0" width="23" height="120" ry="3" />
<rect style="fill:white;stroke:black" x="759" y="0" width="23" height="120" ry="3" />
<rect style="fill:white;stroke:black" x="782" y="0" width="23" height="120" ry="3" />
<rect style="fill:white;stroke:black" x="" y="0" width="23" height="120" ry="3" />



<!-- Black keys (overlap with the white keys) -->
<rect style="fill:black;stroke:black" x="19.75" y="0" width="13" height="80" ry="1" />
<rect style="fill:black;stroke:black" x="60.33333" y="0" width="13" height="80" ry="1" />
<rect style="fill:black;stroke:black" x="87.66666" y="0" width="13" height="80" ry="1" />
<rect style="fill:black;stroke:black" x="128.25" y="0" width="13" height="80" ry="1" />
<rect style="fill:black;stroke:black" x="154.25" y="0" width="13" height="80" ry="1" />
<rect style="fill:black;stroke:black" x="180.75" y="0" width="13" height="80" ry="1" />

<rect style="fill:black;stroke:black" x="221.33333" y="0" width="13" height="80" ry="1" />
<rect style="fill:black;stroke:black" x="248.66666" y="0" width="13" height="80" ry="1" />
<rect style="fill:black;stroke:black" x="289.25" y="0" width="13" height="80" ry="1" />
<rect style="fill:black;stroke:black" x="315.25" y="0" width="13" height="80" ry="1" />
<rect style="fill:black;stroke:black" x="341.75" y="0" width="13" height="80" ry="1" />

<rect style="fill:black;stroke:black" x="382.33333" y="0" width="13" height="80" ry="1" />
<rect style="fill:black;stroke:black" x="409.66666" y="0" width="13" height="80" ry="1" />
<rect style="fill:black;stroke:black" x="450.25" y="0" width="13" height="80" ry="1" />
<rect style="fill:black;stroke:black" x="476.25" y="0" width="13" height="80" ry="1" />
<rect style="fill:black;stroke:black" x="502.75" y="0" width="13" height="80" ry="1" />


</svg>
